<?xml version="1.0" standalone="no"?><!DOCTYPE svg PUBLIC "-//W3C//DTD SVG 1.1//EN" "http://www.w3.org/Graphics/SVG/1.1/DTD/svg11.dtd"><svg t="1728828419245" class="icon" viewBox="0 0 1024 1024" version="1.1" xmlns="http://www.w3.org/2000/svg" p-id="32259" xmlns:xlink="http://www.w3.org/1999/xlink" width="200" height="200"><path d="M144.2 690.9c-0.2 0.2-0.5 0.4-0.7 0.6-49.6 49.6-50.9 128.7-3 176.6 48 48 127 46.6 176.6-3 0.2-0.2 0.4-0.4 0.6-0.7l75-74.9-173.6-173.6-74.9 75z m81.2 165.5c-11.3 11.3-36.9 4.1-57.1-16.1-20.2-20.2-27.4-45.8-16.1-57.1 11.3-11.3 28.1 4.7 48.3 24.9 20.3 20.2 36.3 37 24.9 48.3zM899.7 487.3c-11.7-6.5-42.3-9.6-60.7-11 14.9-20.7-16.5-80.5-20.7-84.7-3.7-3.7-51.8-29.2-76.8-23.9 5.2-25-20.2-73.1-24-76.8-3.7-3.7-51.8-29.2-76.8-23.9 5.2-25-20.2-73.1-23.9-76.8-4.2-4.2-65.6-36.5-85.5-20-1-18.5-3.6-49.6-10.1-61.4-9.6-17.2-45.2-46.7-61.1 1.4L269.4 565.6l1.5-1.6 21.5 21.5 72.9-115.8 24.6 24.6-75.8 112.8 15.2 15.2 86.9-101.7 24 24-89.6 98.9 14.4 14.4 99-89.6 24 24.1-101.7 86.9 15.2 15.2 112.9-75.8 24.6 24.6-116 72.8 21.6 21.6-1.6 1.5 455.3-190.8c48.2-15.9 18.6-51.6 1.4-61.1z m-477-41.7l-25.9-25.9 28.9-45.9c6.7-10.2 19.5-14.5 28.7-9.6 9.2 5 11.3 17.2 4.6 27.4l-36.3 54z m56.3 56.3l-25.2-25.2 36.9-43.2c8.1-9.2 21.1-11.4 29.1-4.8 7.9 6.6 7.7 19.5-0.4 28.6L479 501.9z m52.9 52.9l-25.2-25.2 44.6-40.4c9.2-8.1 22-8.2 28.6-0.4 6.6 7.9 4.5 20.9-4.8 29.1l-43.2 36.9zM634.8 583l-45.9 28.8-25.9-25.9 54-36.2c10.2-6.7 22.5-4.6 27.4 4.6 4.8 9.2 0.5 22-9.6 28.7z" fill="#db639b" p-id="32260"></path></svg>