<?xml version="1.0" standalone="no"?><!DOCTYPE svg PUBLIC "-//W3C//DTD SVG 1.1//EN" "http://www.w3.org/Graphics/SVG/1.1/DTD/svg11.dtd"><svg t="1728828470864" class="icon" viewBox="0 0 1024 1024" version="1.1" xmlns="http://www.w3.org/2000/svg" p-id="33456" xmlns:xlink="http://www.w3.org/1999/xlink" width="200" height="200"><path d="M960 725.92c0 158.4-200.592 197.152-448 197.152S64 884.256 64 725.92s200.592-376.288 448-376.288S960 567.616 960 725.92z" fill="#ECF1FF" p-id="33457"></path><path d="M150.256 100.928h723.52a66.992 66.992 0 0 1 66.992 66.992v554.432a68.208 68.208 0 0 1-2.016 16.272 67.2 67.2 0 0 1-22.48 35.52 64.672 64.672 0 0 1-10.912 7.28 67.136 67.136 0 0 1-31.584 7.92H150.256a68.24 68.24 0 0 1-16.272-2.016 67.76 67.76 0 0 1-20.96-9.28 66.048 66.048 0 0 1-14.56-13.2 65.44 65.44 0 0 1-8.768-13.856 66.608 66.608 0 0 1-6.432-28.64V167.92a66.976 66.976 0 0 1 66.992-66.992z" fill="#FFD400" p-id="33458"></path><path d="M940.752 221.52v-53.6a68.256 68.256 0 0 0-2-16.272 67.744 67.744 0 0 0-9.28-20.96 67.744 67.744 0 0 0-15.792-16.576 68.4 68.4 0 0 0-14.272-8.08 66.992 66.992 0 0 0-25.632-5.12H150.256a67.04 67.04 0 0 0-66.992 67.008v53.6h857.488z" fill="#386BF3" p-id="33459"></path><path d="M188.032 161.216a18.272 18.272 0 0 1-9.696 16.176 17.808 17.808 0 0 1-6.864 2.08 18.24 18.24 0 0 1-14.768-5.28 18.608 18.608 0 0 1-5.024-9.392 18.336 18.336 0 1 1 36.352-3.584z" fill="#FCFFFC" p-id="33460"></path><path d="M251.536 161.216a18.272 18.272 0 0 1-9.696 16.176 17.808 17.808 0 0 1-6.864 2.08 18.24 18.24 0 0 1-13.44-4.064 18.4 18.4 0 0 1-5.92-19.52 18.192 18.192 0 0 1 7.36-9.92 18.32 18.32 0 0 1 28.56 15.248z" fill="#FF9E29" p-id="33461"></path><path d="M315.04 161.216a18.272 18.272 0 0 1-9.696 16.176 18 18 0 0 1-8.656 2.176 18.24 18.24 0 0 1-14.192-6.72 18.48 18.48 0 0 1-4.064-13.44 18.56 18.56 0 0 1 4.064-9.84 18.464 18.464 0 0 1 12.4-6.624 18.288 18.288 0 0 1 18.752 11.248 18.192 18.192 0 0 1 1.392 7.024z" fill="#F26E22" p-id="33462"></path><path d="M223.52 620.4a11.2 11.2 0 0 0 16 0l22.752-22.8a8.992 8.992 0 0 0 2.944-6.72 9.088 9.088 0 0 0-2.944-6.688 9.2 9.2 0 0 0-12-1.216 9.216 9.216 0 0 0-1.408 1.216l-8.848 8.96v-48a8.992 8.992 0 0 0-7.232-9.248 9.088 9.088 0 0 0-10.752 7.44 9.12 9.12 0 0 0-0.112 1.824v48.688l-8.864-8.976a9.12 9.12 0 0 0-6.72-2.88 9.216 9.216 0 0 0-6.688 2.88 9.024 9.024 0 0 0-2.096 6.624 9.04 9.04 0 0 0 3.168 6.176l22.8 22.72z" fill="#CF6701" p-id="33463"></path><path d="M337.248 301.6h-3.472a5.44 5.44 0 0 0-2.144 0h-1.296l-1.776 1.216-1.216 1.072a5.472 5.472 0 0 0-0.944 1.472 5.104 5.104 0 0 0-0.864 1.744v0.672a14.4 14.4 0 0 1-12.176 12.064 9.344 9.344 0 0 0-7.088 9.568 9.328 9.328 0 0 0 9.44 8.896c0.72 0.128 1.44 0.128 2.144 0 2.256-0.704 4.448-1.6 6.56-2.688v49.088a9.312 9.312 0 0 0 9.36 9.36 9.328 9.328 0 0 0 9.36-9.36v-74.256a1.44 1.44 0 0 0 0.128-0.8 9.152 9.152 0 0 0 0-1.872l-0.672-1.6a5.472 5.472 0 0 0-0.928-1.472l-1.2-1.36-1.472-0.928a4.096 4.096 0 0 0-1.744-0.8zM207.52 348.304a9.12 9.12 0 0 0 6.72-2.88l8.8-8.96v48.64a8.944 8.944 0 0 0 4.016 7.52 8.896 8.896 0 0 0 6.784 1.344 8.96 8.96 0 0 0 7.104-7.104 8.816 8.816 0 0 0 0.16-1.76v-49.184l8.848 8.96a9.216 9.216 0 0 0 13.392 0 9.088 9.088 0 0 0 2.048-6.608 9.216 9.216 0 0 0-3.12-6.176l-22.736-22.72a11.2 11.2 0 0 0-16 0l-22.72 22.656a9.216 9.216 0 0 0 0 13.408 9.136 9.136 0 0 0 6.72 2.864z" fill="#195AC0" p-id="33464"></path><path d="M411.248 287.312h427.2a26.672 26.672 0 0 1 18.944 7.84 26.8 26.8 0 0 1 7.856 18.96v71.408a26.688 26.688 0 0 1-9.792 20.72 26.88 26.88 0 0 1-17.008 6.08h-427.2a26.672 26.672 0 0 1-18.944-7.84 26.8 26.8 0 0 1-7.856-18.96v-71.408a26.672 26.672 0 0 1 9.792-20.72 27.216 27.216 0 0 1 11.776-5.568 26.416 26.416 0 0 1 5.232-0.512z" fill="#EF8E00" p-id="33465"></path><path d="M788 694.208a26.672 26.672 0 0 1-7.84 18.944 26.8 26.8 0 0 1-18.944 7.84h-103.712a508.16 508.16 0 0 1-100.88 68.352h317.12a66.32 66.32 0 0 0 19.472-2.88 66.624 66.624 0 0 0 27.92-16.752 69.36 69.36 0 0 0 8.336-10.16 66.032 66.032 0 0 0 8.4-17.776 65.92 65.92 0 0 0 2.8-16.16 68.32 68.32 0 0 0 0.08-3.296v-500.8H816.96c5.392 21.664 9.28 43.584 11.664 65.792h9.28a27.248 27.248 0 0 1 10.288 2.016 26.704 26.704 0 0 1 15.424 16.976 26.368 26.368 0 0 1 1.168 7.792v71.424a26.672 26.672 0 0 1-7.84 18.944 26.8 26.8 0 0 1-18.96 7.84h-11.696a502.784 502.784 0 0 1-65.072 183.712 26.672 26.672 0 0 1 18.944 7.84 26.8 26.8 0 0 1 7.84 18.96v71.392z" fill="#FF9700" p-id="33466"></path><path d="M940.736 167.92v53.6h-123.872a490.448 490.448 0 0 0-45.616-120.592h102.496a67.104 67.104 0 0 1 49.632 22 67.648 67.648 0 0 1 12.256 19.36 67.76 67.76 0 0 1 5.024 22.336c0.048 1.104 0.08 2.192 0.08 3.296z" fill="#195AC0" p-id="33467"></path><path d="M788.016 622.8v71.408a26.656 26.656 0 0 1-6.08 16.992 26.8 26.8 0 0 1-20.72 9.808h-103.696a506.496 506.496 0 0 0 104.112-125.008 26.64 26.64 0 0 1 18.688 8 26.256 26.256 0 0 1 5.712 8.64 26.624 26.624 0 0 1 1.984 10.16z" fill="#FF9700" p-id="33468"></path><path d="M826.32 412.32h12.064a26.608 26.608 0 0 0 14.88-4.528 26.496 26.496 0 0 0 9.872-12.016 26.464 26.464 0 0 0 2.032-10.256v-71.408a27.104 27.104 0 0 0-3.168-12.64 26.784 26.784 0 0 0-23.616-14.16h-9.6a523.568 523.568 0 0 1-2.464 125.008z" fill="#D87B20" p-id="33469"></path><path d="M547.104 362.72h206.72a11.968 11.968 0 0 1 9.696 5.504 11.76 11.76 0 0 1 1.936 6.56 12.064 12.064 0 0 1-11.616 12.064H547.104a12 12 0 0 1-10.752-7.552 12.16 12.16 0 0 1 1.072-11.072 12.064 12.064 0 0 1 9.68-5.488zM547.104 312.896h162.784a12.08 12.08 0 0 1 2.4 23.952 12.096 12.096 0 0 1-2.4 0.16H547.104a12.096 12.096 0 0 1-12.256-14.464 12.08 12.08 0 0 1 12.256-9.648zM427.184 307.664h57.6a13.376 13.376 0 0 1 13.392 13.392v57.6a13.392 13.392 0 0 1-13.392 13.392h-57.6a13.344 13.344 0 0 1-13.12-10.768 13.344 13.344 0 0 1-0.272-2.608v-57.616a13.376 13.376 0 0 1 13.392-13.392z" fill="#195AC0" p-id="33470"></path><path d="M422.704 649.04a5.312 5.312 0 0 1-4.544-2.352 5.392 5.392 0 0 1-0.56-5.04l55.424-143.68a5.44 5.44 0 0 1 3.472-3.264 5.472 5.472 0 0 1 1.616-0.256h11.104a5.28 5.28 0 0 1 4.496 2.432 5.36 5.36 0 0 1 0.64 5.024l-55.296 143.712a5.44 5.44 0 0 1-5.136 3.424h-11.216z m92.8-16.64a5.44 5.44 0 0 1-2.48-4.576v-11.696a5.392 5.392 0 0 1 3.2-4.976l52.928-23.44-52.928-23.584a5.408 5.408 0 0 1-2.976-3.472 5.44 5.44 0 0 1-0.224-1.552v-11.52a5.44 5.44 0 0 1 2.48-4.592 5.264 5.264 0 0 1 5.232-0.368l78.8 35.024a5.6 5.6 0 0 1 3.2 5.024v9.808a5.328 5.328 0 0 1-3.2 4.96l-78.864 35.36a5.36 5.36 0 0 1-5.232-0.368l0.064-0.016z m-124.144 0.4l-78.976-35.28a5.216 5.216 0 0 1-2.992-3.424 5.232 5.232 0 0 1-0.208-1.552v-9.808a5.536 5.536 0 0 1 3.2-5.088l78.912-35.04a5.2 5.2 0 0 1 3.28-0.4 5.472 5.472 0 0 1 4.352 5.376v11.52a5.504 5.504 0 0 1-3.2 5.024l-52.944 23.584 52.912 23.44a5.408 5.408 0 0 1 3.2 4.96v11.712a5.296 5.296 0 0 1-2.496 4.592 5.04 5.04 0 0 1-2.896 0.88 4.96 4.96 0 0 1-2.208-0.496h0.064z" fill="#114EAE" p-id="33471"></path></svg>