<?xml version="1.0" standalone="no"?><!DOCTYPE svg PUBLIC "-//W3C//DTD SVG 1.1//EN" "http://www.w3.org/Graphics/SVG/1.1/DTD/svg11.dtd"><svg t="1728827274198" class="icon" viewBox="0 0 1024 1024" version="1.1" xmlns="http://www.w3.org/2000/svg" p-id="15248" xmlns:xlink="http://www.w3.org/1999/xlink" width="200" height="200"><path d="M0 1014.858473h1014.839855V0H0z" fill="#CA000E" p-id="15249"></path><path d="M648.098909 286.664145c54.718836 0 99.011491 230.474473 99.011491 514.792728h79.201745c0-306.157382-79.778909-554.374982-178.194618-554.374982-55.984873 0-105.900218 74.584436-138.593745 191.245964-32.656291-116.661527-82.608873-191.245964-138.593746-191.245964-98.415709 0-178.213236 248.2176-178.213236 554.374982h79.220364c0-284.318255 44.292655-514.792727 98.992872-514.792728 54.6816 0 98.992873 212.768582 98.992873 475.210473h79.201746c0-262.441891 44.311273-475.210473 98.992872-475.210473M891.382691 768a12.213527 12.213527 0 0 0-4.244946-0.651636h-1.768727v8.005818h2.829964c1.657018 0 3.034764-0.372364 3.984291-1.005382 0.930909-0.651636 1.470836-1.750109 1.470836-3.2768 0-1.489455-0.800582-2.513455-2.271418-3.090618z m-13.144436 22.081164v-27.554909h7.67069l5.697164 0.018618a14.633891 14.633891 0 0 1 5.436509 1.452218c2.494836 1.321891 3.723636 3.537455 3.723637 6.572218 0 2.327273-0.6144 4.002909-1.95491 4.989673a9.551127 9.551127 0 0 1-4.840727 1.880436 10.575127 10.575127 0 0 1 4.021527 1.526691c1.675636 1.247418 2.513455 3.351273 2.513455 6.199855v2.532072a5.641309 5.641309 0 0 0 0.223418 1.582546l0.186182 0.800582h-6.944582a17.687273 17.687273 0 0 1-0.521309-3.8912 12.474182 12.474182 0 0 0-0.465454-3.388509 3.351273 3.351273 0 0 0-1.992146-2.029382 7.354182 7.354182 0 0 0-2.513454-0.484073l-1.582546-0.093091h-1.526691v9.886255h-7.130763z m-3.742255-28.113455a19.735273 19.735273 0 0 0-5.901964 14.336c0 5.771636 2.029382 10.575127 6.032291 14.615273 4.002909 4.002909 8.8064 6.032291 14.484946 6.032291 5.659927 0 10.463418-2.029382 14.447709-6.032291 3.984291-4.058764 5.9392-8.936727 5.9392-14.633891a19.735273 19.735273 0 0 0-5.957818-14.317382 19.2512 19.2512 0 0 0-14.429091-6.199854c-5.678545 0-10.537891 2.048-14.615273 6.199854z m32.023273 32.134982c-4.840727 4.673164-10.668218 7.074909-17.445237 7.074909-7.019055 0-12.9024-2.420364-17.724509-7.242473a24.054691 24.054691 0 0 1-7.168-17.687272c0-7.298327 2.587927-13.349236 7.7824-18.152728 4.896582-4.5056 10.575127-6.795636 17.110109-6.795636 6.888727 0 12.734836 2.4576 17.631419 7.316945 4.840727 4.840727 7.261091 10.724073 7.26109 17.631419 0 7.019055-2.420364 13.032727-7.447272 17.873454z" fill="#FCCF2C" p-id="15250"></path></svg>