<?xml version="1.0" standalone="no"?><!DOCTYPE svg PUBLIC "-//W3C//DTD SVG 1.1//EN" "http://www.w3.org/Graphics/SVG/1.1/DTD/svg11.dtd"><svg t="1728827974120" class="icon" viewBox="0 0 1143 1024" version="1.1" xmlns="http://www.w3.org/2000/svg" p-id="19210" xmlns:xlink="http://www.w3.org/1999/xlink" width="223.2421875" height="200"><path d="M658.092893 341.281664c-34.605066-22.672285-69.806771-45.344569-103.815198-69.210132-12.52942-8.949586-23.865563-6.56303-36.394983-2.983195-48.924404 13.722699-97.252168 28.042036-146.176572 41.764735-39.378179 10.739503-71.000049-2.983195-80.546274-34.008427-10.739503-35.798344 7.159669-66.823576 47.731125-79.352996 62.647102-19.09245 125.890844-35.798344 188.537946-54.294156 22.672285-6.56303 42.958013-2.386556 62.050463 10.739504 65.033659 43.554652 131.260595 86.512665 196.294254 130.067317 41.168096 28.042036 43.554652 68.016854 5.966391 102.025281-56.084073 50.714321-112.764784 100.832003-169.445496 150.353045-14.915977 12.52942-19.09245 19.09245 2.983196 29.235314 57.87399 26.252119 114.554701 54.890794 171.235412 82.932831 51.907599 25.058841 60.857185 56.084073 31.025232 105.008476-47.134486 76.96644-94.865612 153.93288-142.000098 230.89932-14.915977 24.462202-34.008427 42.958013-64.43702 38.781539-44.151291-5.369752-65.033659-51.907599-40.571457-93.672333 32.815149-55.487433 67.420215-109.781589 101.428642-164.672383 19.09245-31.025232 19.689089-31.621871-13.722698-47.731126-62.647102-30.428593-124.697565-60.857185-187.344668-91.285778-49.521043-24.462202-57.277351-69.806771-16.705894-106.798393 54.890794-50.117682 111.571506-99.042085 167.058939-148.563128 9.546225-8.949586 20.882367-15.512616 26.848758-29.235315z" fill="#03AA91" p-id="19211"></path><path d="M405.714567 603.206216c15.512616 35.798344 41.764735 52.504238 72.193327 64.437019 16.109255 5.966391 18.495811 13.12606 8.352947 28.042036-28.638675 41.764735-55.487433 84.722748-82.93283 127.084122-7.756308 11.932781-17.899172 21.479006-29.831954 28.638676-93.075695 53.697516-185.554751 107.395032-278.033806 160.495909-15.512616 8.949586-31.621871 16.109255-50.714321 9.546225-25.058841-8.352947-40.571457-25.65548-43.554652-51.31096-2.983195-26.252119 10.739503-45.941208 32.815149-59.067268 47.134486-28.042036 92.479056-59.067268 142.000098-81.142913 95.462251-43.554652 168.252218-108.588311 214.790065-203.453923 1.789917-7.159669 7.756308-12.52942 14.915977-23.268923z" fill="#04AB91" p-id="19212"></path><path d="M890.185491 276.844645c-75.176523 0-138.420264-62.647102-138.420264-138.420264C751.765227 63.844497 815.605608-0.592522 890.185491 0.004117c75.176523 0 138.420264 63.243741 138.420264 138.420264-0.596639 75.773162-63.243741 138.420264-138.420264 138.420264z" fill="#03AA91" p-id="19213"></path><path d="M858.563621 332.928717c11.932781 7.756308 23.268924 13.12606 31.62187 20.882368 23.268924 22.672285 38.781539 14.319338 56.680712-7.756308 26.848758-32.815149 56.680712-63.84038 85.916026-94.865612 29.235314-31.025232 63.84038-35.201705 89.49586-12.529421 28.042036 24.462202 27.445397 58.470629-2.386556 91.882417-46.537847 51.907599-93.075695 103.218559-140.80682 153.93288-29.235314 31.621871-53.697516 34.605066-89.495861 11.336142-25.65548-16.705894-51.31096-34.605066-76.96644-51.31096-11.932781-7.756308-14.915977-14.319338-1.789917-23.865562 29.235314-20.882367 44.151291-50.117682 47.731126-87.705944z" fill="#04AB91" p-id="19214"></path></svg>