<?xml version="1.0" standalone="no"?><!DOCTYPE svg PUBLIC "-//W3C//DTD SVG 1.1//EN" "http://www.w3.org/Graphics/SVG/1.1/DTD/svg11.dtd"><svg t="1728827368907" class="icon" viewBox="0 0 1024 1024" version="1.1" xmlns="http://www.w3.org/2000/svg" p-id="16477" xmlns:xlink="http://www.w3.org/1999/xlink" width="200" height="200"><path d="M621.637966 342.795133c0.940233-0.434184 21.983688 55.249175 104.278039 77.304727-10.485296 16.55988-26.249671 32.035798-28.202002 39.917986 30.082468 21.477639 57.633694 48.161494 67.396347 112.521547 6.798225 51.995289 25.455164 91.2615 61.467489 111.727041l29.794011-38.471704 100.589969 80.558613-102.470435 145.423717-15.186462-10.413431 94.588248-133.275546-73.760388-57.706557-199.517063 269.443657 89.453896 71.881918-10.340568 12.292899L635.667602 946.261088l35.723867-46.570483-54.525535-41.797454-47.510717 4.772032-17.935296-2.024196-97.263221-70.145182-65.445014 84.825595c-10.123975 10.19584-21.83896 10.991345-37.748063 9.68979l-34.132857-2.603108c-26.467262 23.936019-50.331416 34.928362-72.242241 35.434411-15.837238 1.662875-30.588517-0.72364-44.54529-6.074584l0.361321-12.51049c14.82514 4.77303 30.371925 7.810323 47.437854 6.798224 16.343287-2.386515 31.746342-9.689791 45.99257-22.923921 3.326748-5.929857 5.6404-12.292899 4.266981-20.176084-15.258326-34.855499-23.791291-53.368709-7.448003-66.239522l56.333137-78.172097c2.386515-3.398613 2.168924-7.231411-0.506049-11.353664l-43.967375-37.964656c-18.585075-16.053831-20.753999-36.013323-9.183742-56.333138 6.797227-12.149169 19.886629-16.777471 35.361548-16.777472-17.42725-26.467262-12.582355-45.26893 0.795505-63.058499 6.508769-8.677693 18.150891-14.24523 40.134578-13.595451-13.595451-24.079749-13.956772-45.703114 4.844896-63.854004 14.752277-11.859713 32.179528-16.704608 54.597399-9.110879-3.037292-23.501835 3.543341-40.496897 19.597173-50.837465 11.714985-8.098781 24.370203-11.931578 39.12248-6.725362l57.346234 40.351171c7.158548-31.022702 19.234854-45.340795 34.566043-48.161494l13.378858 1.952331c0-0.000998 27.767818-39.773257 28.563323-40.280304M147.976081 68.866904l-0.071865 79.763108c-53.079252 27.190902-81.715439 64.794237-80.848069 121.850017 8.316372 55.465768 42.159773 75.06294 91.116771 79.257059 0.506049 40.206443-2.965427 76.364494-29.504554 90.103675l-6.291178-2.603108-18.222755-36.735965-26.034076 33.625809 43.606054 17.500114 42.737687-35.651004c8.243509-18.729803 12.365762-42.159773 13.595451-68.915493 37.603335-2.965427 59.804614-24.514931 72.025648-58.068876 11.714985-66.022928-26.467262-97.263221-81.787304-90.321266l-2.45838-46.570484c30.661381-19.670036 51.560107-46.281028 53.657167-85.620101 2.025194-36.301781-14.607549-64.288188-33.698673-66.313383-20.683132-2.818703-38.399838 32.977029-37.821924 68.699898m39.701392-60.020209c12.727083 8.388237 17.428249 24.008882 14.246228 47.149396-1.808601 24.949115-12.871811 48.667543-33.120759 71.158278-2.675971 1.735738-4.989623 1.735738-7.013819 0-6.364041-67.326479-0.868368-112.523544 25.88835-118.307674m-17.572977 204.86701c34.855499-1.083963 55.898954 12.944674 56.91205 49.246455-4.121255 31.818207-20.609271 54.019486-49.463048 66.673706l-7.449002-115.920161zM158.678968 330.646962c-28.419593 2.892564-50.837465-14.680412-64.431919-61.973538-3.253885-42.44823 13.740179-76.652952 53.801895-101.530203l3.037292 40.134579c-11.64312 9.617926-19.886629 20.10422-20.826862 32.469981-2.747836 17.42725 4.122253 27.768816 12.221034 37.025422-5.785128-23.285242-7.520867-44.546288 11.208936-46.209163l4.989624 100.082922z m676.143378-167.987315c-72.242241-56.839187-144.846801-20.465541-187.078438 32.831303l203.854912 158.658845c47.510717-58.069874 53.22398-136.3867-16.776474-191.490148M670.016053 377.65163c72.314106 56.839187 161.478546 21.477639 170.735152-3.398613L635.884194 215.449443c-28.274865 4.989623-35.795732 107.025875 34.131859 162.202187M462.111751 779.504461l94.298792 66.457112 30.949838 3.18202 33.626808-2.819701 59.225702 38.109384 136.457567-181.799359c2.386515-3.398613 2.169922-6.798225-0.506049-10.19584-32.468984-23.068649-54.814991-54.237077-62.407723-96.973765 0.145726-32.75844-9.039014-63.926867-29.359826-93.286694l-137.975714-109.484255c-24.949115 7.520867-25.889348 32.0348-20.103221 61.250896 24.876252 37.386742 50.981195 67.180753 77.593185 94.442522-20.465541 53.874758-19.814764 104.856951 11.498392 151.644028-0.578912 5.713264-6.292176 5.062486-12.004441 3.544339-25.019982-41.652725-33.264489-82.872265-15.185463-138.916944 0 0-3.254883-4.77303-5.496671-1.808602-23.358105 31.89107-158.224661 217.522228-160.611176 216.654859M304.755458 617.012818c-9.473198 7.013819-8.171644 33.120759 7.086682 44.907609l50.330419 38.760161c3.616204 4.844895 26.395397 18.440347 40.207441 3.471476 12.655218-14.82514 14.246228-27.189904-4.555439-42.521093l-52.861662-43.027143c-17.64584-14.462821-25.528027-12.655218-40.207441-1.59101m147.448911-203.783047c-12.51049 14.680412-10.774752 37.025421 3.904662 49.607776l62.479588 53.151117c14.82514 12.582355 37.098284 10.702887 49.607776-3.976527 12.582355-14.752277 10.847615-37.025421-3.976528-49.607776l-62.480585-53.151117c-14.751279-12.583353-37.024423-10.77575-49.534913 3.976527m79.113329 168.494362c6.146449-6.074585 6.652499-32.686575-1.953329-39.628529l-102.541303-81.571709c-8.605828-6.87009-31.528751-6.363042-39.050615 1.808601-11.78685 12.799946-20.826862 23.936019-3.904663 51.849563l98.058727 80.412887c8.605828 7.159546 31.89107 4.701165 35.21682 1.446282l14.174363-14.317095z m-193.442479-37.460603c-12.582355 14.752277-11.136073 37.459605 3.977525 49.607776l70.28991 56.333138c15.041733 12.149169 37.097286 10.774752 49.607776-3.904663 12.582355-14.752277 11.064208-37.532468-4.04939-49.607776l-70.218045-56.406001c-15.113598-12.076306-37.025421-10.773754-49.607776 3.977526" fill="#2c2c2c" p-id="16478"></path></svg>