<?xml version="1.0" standalone="no"?><!DOCTYPE svg PUBLIC "-//W3C//DTD SVG 1.1//EN" "http://www.w3.org/Graphics/SVG/1.1/DTD/svg11.dtd"><svg t="1728826867086" class="icon" viewBox="0 0 1327 1024" version="1.1" xmlns="http://www.w3.org/2000/svg" p-id="9513" xmlns:xlink="http://www.w3.org/1999/xlink" width="259.1796875" height="200"><path d="M690.53429916 322.24860951a101.98680636 101.98680636 0 1 0 203.97361194 0 101.98680636 101.98680636 0 1 0-203.97361194 0Z" fill="#3C7FC3" p-id="9514"></path><path d="M1143.80899348 803.85297255c-11.33186703-11.33186703-28.32966872-22.66373484-45.32746966-33.99560186-33.99560186-22.66373484-67.9912045-45.32746966-107.65273949-56.65933668-90.65493855-33.99560186-192.6417449-22.66373484-277.63075033 22.66373405-22.66373484 11.33186703-45.32746966 28.32966872-67.99120449 45.32746966-11.33186703 11.33186703-28.32966872 16.99780094-45.32746967 22.66373483-5.66593391 5.66593391-11.33186703 5.66593391-16.99780092 11.33186702-5.66593391 0-5.66593391 5.66593391-11.33186704 5.66593392 5.66593391-5.66593391 0 0 0 0h-5.6659339c-16.99780094 5.66593391-39.66153576 11.33186703-62.32527059 16.99780093h-5.66593389H390.239814c-5.66593391 0-11.33186703 0-16.99780093-5.66593314-11.33186703 0-22.66373484-5.66593391-33.99560264-11.33186779-5.66593391 0-11.33186703-5.66593391-16.99780092-5.66593392H299.58487468c-16.99780094-5.66593391-33.99560186-16.99780094-50.9934028-28.32966796-5.66593391-5.66593391-16.99780094-11.33186703-22.66373483-16.99780092h-5.66593389l-11.33186703-5.66593391-33.99560187-33.99560185c-11.33186703-11.33186703-33.99560186-5.66593391-39.66153576 11.33186703-5.66593391 5.66593391 0 16.99780094 5.66593313 22.66373482l5.6659339 5.66593391 22.66373483 22.66373484c28.32966872 22.66373484 56.6593367 39.66153576 90.65493855 56.65933668 39.66153576 22.66373484 84.98900543 33.99560186 135.982409 39.66153577h79.32307152c22.66373484 0 45.32746966-5.66593391 67.99120373-11.3318678 39.66153576-11.33186703 73.65713762-28.32966872 107.65274024-45.3274689 11.33186703-5.66593391 22.66373484-11.33186703 33.99560187-22.66373482 11.33186703-5.66593391 22.66373484-16.99780094 33.99560185-22.66373485 11.33186703-11.33186703 28.32966872-16.99780094 45.32746966-22.66373483 5.66593391 0 5.66593391-5.66593391 11.33186704-5.66593389h5.6659339c-5.66593391 5.66593391 0 0 5.6659339 0 11.33186703-5.66593391 22.66373484-5.66593391 28.32966795-11.33186703 5.66593391 0 11.33186703 0 16.99780171-5.6659339H934.16944686c5.66593391 0 11.33186703 0 16.99780171 5.6659339 11.33186703 0 22.66373484 5.66593391 33.99560186 11.33186703h11.33186703c5.66593391 0 11.33186703 5.66593391 16.99780094 5.66593389 16.99780094 5.66593391 33.99560186 16.99780094 50.99340356 28.32966875 5.66593391 5.66593391 11.33186703 11.33186703 22.66373482 11.33186702l5.66593314 5.66593391 5.6659339 5.66593311 16.99780093 16.99780171c11.33186703 11.33186703 28.32966872 11.33186703 33.99560264 0 0-5.66593391 0-16.99780094-5.66593391-28.32966873zM146.60466553 764.19143678z m5.66593391 0c0 5.66593391 0 5.66593391 0 0 5.66593391 5.66593391 0 5.66593391 0 0 0 5.66593391 0 5.66593391 0 0z m11.33186702 0s5.66593391 0 0 0c5.66593391 0 5.66593391 0 0 0zM594.21342672 588.54749282C645.20682951 554.55189094 690.53429916 526.22222222 786.85517162 526.22222222L594.21342672 339.24641043 497.8925535 242.92553799l67.99120448-16.99780093c56.6593367-11.33186703 113.31867338-28.32966872 169.97801008-39.66153577 11.33186703-5.66593391 28.32966872-5.66593391 39.66153576-11.33186703 11.33186703-5.66593391 22.66373484-16.99780094 16.99780171-28.32966873-11.33186703-11.33186703-22.66373484-16.99780094-33.99560263-16.99780094-33.99560186 11.33186703-67.9912045 16.99780094-107.6527395 28.32966875-56.6593367 11.33186703-113.31867338 28.32966872-169.97801084 39.66153576-11.33186703 5.66593391-22.66373484 5.66593391-33.99560186 11.33186703-22.66373484 5.66593391-28.32966872 28.32966872-11.33186703 39.66153576L543.22002316 356.24421214l16.99780092 16.99780093-254.9670155 232.30328067c198.30767881 62.3252706 226.63734754 22.66373484 288.96261814-16.99780092zM310.91674247 820.85077349c-5.66593391 0 0 0 1e-8 0z" fill="#3C7FC3" p-id="9515"></path><path d="M220.26180316 769.85737069s5.66593391 0 0 0c5.66593391 5.66593391 5.66593391 5.66593391 0 0zM985.16285043 758.5255029c5.66593391 0 0 0 0-1e-8zM1070.15185584 809.51890645c0-5.66593391 0-5.66593391 0 1e-8zM843.51450831 633.87496248zM1058.81998806 684.86836527c5.66593391 0 5.66593391 5.66593391 11.33186778 5.66593389 0 0 5.66593391 5.66593391 5.66593315 0 0 0 5.66593391 0 5.66593389 5.66593315 5.66593391 5.66593391 11.33186703 11.33186703 16.99780094 11.33186779 5.66593391 5.66593391 11.33186703 5.66593391 16.99780093 11.33186702 11.33186703 11.33186703 28.32966872 11.33186703 33.99560264 0 11.33186703-11.33186703 11.33186703-22.66373484 0-33.99560185-16.99780094-16.99780094-39.66153576-33.99560186-62.32527061-45.32746967-11.33186703-5.66593391-28.32966872 0-33.99560263 5.6659339-11.33186703 22.66373484-5.66593391 33.99560186 5.66593391 39.66153577zM135.2727985 650.8727634s0 5.66593391 1e-8 0l5.66593312 5.66593313 16.99780171 16.99780171c16.99780094 16.99780094 39.66153576 33.99560186 62.32526982 45.32746888 28.32966872 16.99780094 56.6593367 33.99560186 90.65493932 45.32746966 39.66153576 11.33186703 73.65713762 16.99780094 113.31867338 16.99780094s79.32307152 0 118.9846073-11.33186703c28.32966872-5.66593391 56.6593367-16.99780094 79.32307152-33.99560263 22.66373484-11.33186703 39.66153576-22.66373484 56.65933669-33.99560187 16.99780094-11.33186703 39.66153576-28.32966872 56.65933669-39.66153575 5.66593391-5.66593391 11.33186703-5.66593391 16.9978017-11.33186704 5.66593391 0 5.66593391-5.66593391 11.33186702-5.66593389h5.66593391c16.99780094-5.66593391 33.99560186-11.33186703 50.9934028-11.33186703H917.17164594c11.33186703 0 22.66373484 5.66593391 33.99560263 5.66593312 11.33186703 5.66593391 22.66373484 5.66593391 33.99560186 11.3318678h16.99780094c5.66593391 0 11.33186703-5.66593391 11.33186703-11.3318678 5.66593391-11.33186703-5.66593391-22.66373484-16.99780094-28.32966795-39.66153576-22.66373484-84.98900543-28.32966872-135.98240822-28.32966873-39.66153576 0-79.32307152 11.33186703-113.31867338 28.32966873-28.32966872 11.33186703-50.99340278 22.66373484-73.65713761 39.66153575-5.66593391 5.66593391-11.33186703 11.33186703-22.66373485 16.99780094-5.66593391 5.66593391-16.99780094 11.33186703-28.32966872 16.99780093-11.33186703 5.66593391-22.66373484 11.33186703-39.66153577 16.99780092-5.66593391 5.66593391-11.33186703 5.66593391-16.99780093 5.66593391h-5.6659339c-5.66593391 0-5.66593391 0-11.33186702 5.66593391-16.99780094 5.66593391-28.32966872 11.33186703-45.32746967 11.33186702h-11.33186703H390.239814h-22.66373483c-11.33186703 0-16.99780094-5.66593391-28.32966874-5.66593391s-16.99780094-5.66593391-22.66373405-5.66593311h-5.66593391c-5.66593391 0-5.66593391-5.66593391-11.33186779-5.66593391-16.99780094-5.66593391-33.99560186-11.33186703-45.32746889-22.66373483-5.66593391-5.66593391-11.33186703-5.66593391-16.99780093-11.33186703l-5.66593391-5.6659339s-5.66593391 0-5.66593389-5.6659339c-11.33186703-5.66593391-22.66373484-11.33186703-28.32966796-16.99780093-11.33186703-11.33186703-16.99780094-16.99780094-28.32966874-22.66373483-11.33186703-11.33186703-33.99560186-11.33186703-39.66153577 5.6659339 0 11.33186703 0 22.66373484 5.66593391 22.66373482 0 5.66593391 0 5.66593391 0 0z m175.64394398 62.32527061c-5.66593391 0 0 0 0 0z m-84.98900543-45.32746967s0-5.66593391 0 0zM152.27059944 662.20463044c5.66593391 0 0 0 0 0z m11.33186702-5.66593391s5.66593391 0 0 0c5.66593391 0 5.66593391 0 0 0z m-16.99780092 0z" fill="#3C7FC3" p-id="9516"></path></svg>